# Blender v2.93.1 OBJ File: ''
# www.blender.org
mtllib untitled.mtl
o Círculo_Círculo.002
v 0.000000 0.000000 0.000000
v 0.000000 0.000000 -10.000000
v -0.980171 0.000000 -9.951847
v -1.950903 0.000000 -9.807853
v -2.902847 0.000000 -9.569404
v -3.826835 0.000000 -9.238795
v -4.713967 0.000000 -8.819213
v -5.555702 0.000000 -8.314696
v -6.343933 0.000000 -7.730105
v -7.071068 0.000000 -7.071068
v -7.730104 0.000000 -6.343933
v -8.314696 0.000000 -5.555702
v -8.819212 0.000000 -4.713968
v -9.238795 0.000000 -3.826834
v -9.569404 0.000000 -2.902846
v -9.807853 0.000000 -1.950904
v -9.951847 0.000000 -0.980171
v -10.000000 0.000000 0.000000
v -9.951847 0.000000 0.980171
v -9.807853 0.000000 1.950903
v -9.569403 0.000000 2.902847
v -9.238795 0.000000 3.826834
v -8.819213 0.000000 4.713966
v -8.314696 0.000000 5.555702
v -7.730105 0.000000 6.343933
v -7.071068 0.000000 7.071068
v -6.343933 0.000000 7.730105
v -5.555702 0.000000 8.314696
v -4.713968 0.000000 8.819212
v -3.826835 0.000000 9.238795
v -2.902847 0.000000 9.569404
v -1.950903 0.000000 9.807853
v -0.980171 0.000000 9.951847
v 0.000001 0.000000 10.000000
v 0.980170 0.000000 9.951847
v 1.950902 0.000000 9.807853
v 2.902847 0.000000 9.569404
v 3.826834 0.000000 9.238795
v 4.713968 0.000000 8.819212
v 5.555703 0.000000 8.314695
v 6.343932 0.000000 7.730105
v 7.071067 0.000000 7.071068
v 7.730104 0.000000 6.343933
v 8.314694 0.000000 5.555704
v 8.819213 0.000000 4.713967
v 9.238795 0.000000 3.826836
v 9.569404 0.000000 2.902845
v 9.807853 0.000000 1.950904
v 9.951847 0.000000 0.980169
v 10.000000 0.000000 -0.000000
v 9.951847 0.000000 -0.980170
v 9.807853 0.000000 -1.950904
v 9.569404 0.000000 -2.902846
v 9.238794 0.000000 -3.826836
v 8.819213 0.000000 -4.713967
v 8.314697 0.000000 -5.555701
v 7.730104 0.000000 -6.343933
v 7.071069 0.000000 -7.071066
v 6.343932 0.000000 -7.730105
v 5.555703 0.000000 -8.314696
v 4.713965 0.000000 -8.819214
v 3.826834 0.000000 -9.238795
v 2.902848 0.000000 -9.569403
v 1.950902 0.000000 -9.807853
v 0.980172 0.000000 -9.951847
vt 0.500000 0.500000
vt 0.500000 4.294889
vt 0.128036 4.276615
vt -0.240346 4.221972
vt -0.601598 4.131483
vt -0.952241 4.006021
vt -1.288898 3.846793
vt -1.608327 3.655335
vt -1.907452 3.433489
vt -2.183392 3.183392
vt -2.433489 2.907452
vt -2.655335 2.608327
vt -2.846793 2.288898
vt -3.006020 1.952241
vt -3.131482 1.601598
vt -3.221972 1.240346
vt -3.276616 0.871964
vt -3.294889 0.500000
vt -3.276616 0.128036
vt -3.221972 -0.240346
vt -3.131482 -0.601598
vt -3.006020 -0.952241
vt -2.846793 -1.288898
vt -2.655335 -1.608327
vt -2.433489 -1.907452
vt -2.183392 -2.183392
vt -1.907452 -2.433489
vt -1.608327 -2.655335
vt -1.288899 -2.846793
vt -0.952242 -3.006020
vt -0.601598 -3.131483
vt -0.240346 -3.221972
vt 0.128036 -3.276616
vt 0.500000 -3.294889
vt 0.871963 -3.276616
vt 1.240346 -3.221972
vt 1.601598 -3.131483
vt 1.952241 -3.006020
vt 2.288899 -2.846793
vt 2.608328 -2.655335
vt 2.907452 -2.433489
vt 3.183392 -2.183392
vt 3.433489 -1.907452
vt 3.655334 -1.608328
vt 3.846794 -1.288898
vt 4.006020 -0.952242
vt 4.131483 -0.601597
vt 4.221971 -0.240346
vt 4.276616 0.128037
vt 4.294889 0.500000
vt 4.276616 0.871964
vt 4.221971 1.240346
vt 4.131483 1.601598
vt 4.006020 1.952242
vt 3.846794 2.288898
vt 3.655335 2.608327
vt 3.433489 2.907452
vt 3.183392 3.183391
vt 2.907452 3.433489
vt 2.608328 3.655335
vt 2.288898 3.846793
vt 1.952241 4.006021
vt 1.601599 4.131483
vt 1.240346 4.221972
vt 0.871964 4.276615
vn 0.0000 1.0000 0.0000
g Círculo_Círculo.002_Materiais
usemtl Materiais
s off
f 1/1/1 2/2/1 3/3/1
f 1/1/1 3/3/1 4/4/1
f 1/1/1 4/4/1 5/5/1
f 1/1/1 5/5/1 6/6/1
f 1/1/1 6/6/1 7/7/1
f 1/1/1 7/7/1 8/8/1
f 1/1/1 8/8/1 9/9/1
f 1/1/1 9/9/1 10/10/1
f 1/1/1 10/10/1 11/11/1
f 1/1/1 11/11/1 12/12/1
f 1/1/1 12/12/1 13/13/1
f 1/1/1 13/13/1 14/14/1
f 1/1/1 14/14/1 15/15/1
f 1/1/1 15/15/1 16/16/1
f 1/1/1 16/16/1 17/17/1
f 1/1/1 17/17/1 18/18/1
f 1/1/1 18/18/1 19/19/1
f 1/1/1 19/19/1 20/20/1
f 1/1/1 20/20/1 21/21/1
f 1/1/1 21/21/1 22/22/1
f 1/1/1 22/22/1 23/23/1
f 1/1/1 23/23/1 24/24/1
f 1/1/1 24/24/1 25/25/1
f 1/1/1 25/25/1 26/26/1
f 1/1/1 26/26/1 27/27/1
f 1/1/1 27/27/1 28/28/1
f 1/1/1 28/28/1 29/29/1
f 1/1/1 29/29/1 30/30/1
f 1/1/1 30/30/1 31/31/1
f 1/1/1 31/31/1 32/32/1
f 1/1/1 32/32/1 33/33/1
f 1/1/1 33/33/1 34/34/1
f 1/1/1 34/34/1 35/35/1
f 1/1/1 35/35/1 36/36/1
f 1/1/1 36/36/1 37/37/1
f 1/1/1 37/37/1 38/38/1
f 1/1/1 38/38/1 39/39/1
f 1/1/1 39/39/1 40/40/1
f 1/1/1 40/40/1 41/41/1
f 1/1/1 41/41/1 42/42/1
f 1/1/1 42/42/1 43/43/1
f 1/1/1 43/43/1 44/44/1
f 1/1/1 44/44/1 45/45/1
f 1/1/1 45/45/1 46/46/1
f 1/1/1 46/46/1 47/47/1
f 1/1/1 47/47/1 48/48/1
f 1/1/1 48/48/1 49/49/1
f 1/1/1 49/49/1 50/50/1
f 1/1/1 50/50/1 51/51/1
f 1/1/1 51/51/1 52/52/1
f 1/1/1 52/52/1 53/53/1
f 1/1/1 53/53/1 54/54/1
f 1/1/1 54/54/1 55/55/1
f 1/1/1 55/55/1 56/56/1
f 1/1/1 56/56/1 57/57/1
f 1/1/1 57/57/1 58/58/1
f 1/1/1 58/58/1 59/59/1
f 1/1/1 59/59/1 60/60/1
f 1/1/1 60/60/1 61/61/1
f 1/1/1 61/61/1 62/62/1
f 1/1/1 62/62/1 63/63/1
f 1/1/1 63/63/1 64/64/1
f 1/1/1 64/64/1 65/65/1
f 1/1/1 65/65/1 2/2/1
